<?xml version="1.0" standalone="no"?>
<!DOCTYPE svg PUBLIC "-//W3C//DTD SVG 20010904//EN"
 "http://www.w3.org/TR/2001/REC-SVG-20010904/DTD/svg10.dtd">
<svg version="1.0" xmlns="http://www.w3.org/2000/svg"
 width="851.000000pt" height="851.000000pt" viewBox="0 0 851.000000 851.000000"
 preserveAspectRatio="xMidYMid meet">
<metadata>
Created by potrace 1.11, written by Peter Selinger 2001-2013
</metadata>
<g transform="translate(0.000000,851.000000) scale(0.100000,-0.100000)"
fill="#000000" stroke="none">
<path d="M708 5542 c-9 -2 -21 -18 -27 -35 -20 -62 -591 -2357 -591 -2374 1
-46 3 -46 290 -46 149 0 273 3 276 6 3 3 15 39 25 79 52 197 101 385 104 399
2 9 38 148 80 310 42 162 99 380 126 484 73 281 105 405 145 555 39 147 43
203 19 254 -21 44 -69 92 -105 105 -33 11 -35 10 -45 -39 -4 -19 -45 -179 -91
-355 -47 -176 -86 -329 -88 -340 -3 -11 -14 -56 -26 -100 -12 -44 -23 -87 -25
-95 -26 -105 -260 -1001 -271 -1037 -5 -20 -12 -21 -68 -19 -68 2 -86 9 -86
34 0 9 36 163 81 342 44 179 82 332 84 340 2 8 35 141 75 295 39 154 73 291
76 305 3 14 12 50 20 80 8 30 17 64 19 75 3 11 12 47 20 80 9 33 18 71 21 83
2 13 12 49 20 80 8 32 17 64 19 72 1 8 20 80 40 160 20 80 39 154 41 165 15
58 15 91 3 102 -18 13 -138 40 -161 35z"/>
<path d="M1273 4586 c-36 -16 -54 -45 -55 -84 0 -24 78 -283 102 -337 5 -11
27 -78 49 -150 22 -71 63 -200 91 -285 28 -85 52 -164 54 -175 5 -31 -14 -63
-43 -74 -15 -6 -133 -10 -281 -10 -327 1 -300 2 -300 -20 0 -31 27 -84 57
-113 58 -56 74 -58 420 -58 298 0 320 1 350 20 21 12 36 32 43 57 10 35 6 55
-64 268 -73 225 -253 784 -283 877 -25 78 -79 111 -140 84z"/>
<path d="M6199 4338 c-1 -2 -2 -241 -3 -531 l-1 -528 45 3 44 3 1 215 0 215
195 6 c219 6 259 15 330 76 26 22 54 61 71 97 25 53 28 69 25 140 -5 144 -66
232 -192 278 -52 18 -85 21 -286 24 -126 2 -228 3 -229 2z m467 -93 c97 -29
158 -117 153 -223 -4 -102 -46 -167 -129 -205 -39 -18 -68 -21 -222 -23 -98
-1 -179 1 -179 5 -1 3 -3 108 -3 234 l-2 227 166 0 c117 0 181 -4 216 -15z"/>
<path d="M2314 4322 c-29 -3 -32 -7 -71 -120 -23 -64 -57 -160 -76 -212 -31
-86 -106 -293 -216 -597 l-40 -113 133 0 134 0 27 83 c15 45 31 86 36 91 14
15 370 14 385 -1 7 -7 22 -43 33 -80 12 -38 25 -74 29 -81 7 -9 41 -12 140
-10 l130 3 -50 140 c-27 77 -52 147 -55 155 -4 8 -7 17 -8 20 -1 3 -4 12 -8
20 -6 15 -200 553 -233 648 -15 41 -23 52 -41 53 -72 3 -222 4 -249 1z m182
-464 c31 -95 59 -179 62 -185 3 -10 -25 -13 -122 -13 -69 0 -126 2 -126 5 0
16 120 365 125 365 2 0 29 -78 61 -172z"/>
<path d="M4005 4310 l-60 -5 0 -97 0 -98 -51 0 -51 0 1 -105 c0 -114 -4 -107
64 -107 17 0 32 -3 33 -7 1 -3 2 -98 3 -211 2 -202 3 -206 30 -263 48 -101
140 -141 307 -135 l84 3 0 105 0 105 -50 1 c-120 3 -115 -7 -115 220 l0 185
23 -1 c12 -1 49 -2 82 -1 l61 1 -1 103 0 102 -82 3 -83 3 -1 37 c0 20 0 65 1
100 1 34 -2 62 -7 63 -56 3 -140 3 -188 -1z"/>
<path d="M3270 4106 c-78 -22 -99 -34 -145 -82 -49 -50 -67 -98 -67 -176 1
-105 77 -179 224 -217 165 -44 188 -52 208 -74 44 -46 -4 -100 -86 -99 -55 1
-91 23 -114 68 l-15 29 -120 -1 c-106 -1 -120 -3 -123 -18 -6 -31 56 -143 98
-176 122 -96 320 -120 464 -56 131 59 187 185 136 304 -13 29 -35 63 -51 76
-30 25 -105 64 -135 70 -35 7 -170 45 -196 55 -33 13 -57 47 -51 72 10 35 48
52 105 47 42 -5 57 -11 80 -37 16 -18 26 -36 23 -41 -4 -6 41 -10 116 -10
l122 0 -7 40 c-16 104 -99 189 -216 224 -64 19 -187 20 -250 2z"/>
<path d="M4941 4108 c-45 -12 -104 -51 -145 -94 l-34 -36 0 53 c0 30 0 60 -1
67 -1 9 -33 12 -126 12 -112 0 -125 -2 -126 -17 0 -10 -1 -196 -1 -413 l-1
-395 126 -3 c70 -1 127 1 128 5 0 4 2 107 3 228 1 129 7 230 13 245 25 58 79
85 178 89 33 2 62 4 64 7 3 3 4 163 2 245 -1 19 -28 21 -80 7z"/>
<path d="M5343 4101 c-160 -55 -255 -221 -247 -431 9 -231 155 -396 354 -401
91 -2 161 23 224 81 l42 39 -1 -54 -2 -55 128 0 129 0 0 415 0 415 -128 0
-129 0 2 -55 2 -55 -47 43 c-82 74 -214 98 -327 58z m293 -236 c64 -49 87
-128 69 -234 -10 -62 -76 -127 -137 -136 -86 -13 -169 33 -198 110 -43 114 9
255 105 285 49 15 123 4 161 -25z"/>
<path d="M7275 4071 c-82 -22 -152 -77 -179 -143 -25 -58 -21 -78 13 -78 43 0
61 10 61 32 0 11 10 34 22 50 49 70 193 94 284 47 63 -32 86 -78 90 -174 l3
-72 -152 -6 c-168 -6 -201 -13 -269 -56 -65 -41 -99 -95 -103 -165 -10 -160
93 -251 271 -239 74 5 149 39 208 93 l46 43 0 -30 c0 -17 3 -45 6 -62 6 -29 9
-31 52 -31 l45 0 -8 33 c-4 17 -9 154 -11 304 -2 244 -5 276 -22 316 -41 92
-119 137 -246 143 -45 2 -94 0 -111 -5z m290 -496 c-2 -79 -5 -89 -32 -123
-32 -40 -104 -89 -143 -98 -14 -3 -51 -7 -82 -9 -210 -11 -244 230 -43 300 24
8 90 14 171 14 l131 2 -2 -86z"/>
<path d="M7790 4061 c0 -11 44 -127 170 -446 68 -170 122 -317 122 -327 -1
-34 -67 -174 -98 -208 -30 -32 -37 -35 -87 -35 -55 0 -55 0 -61 -34 -3 -19 -3
-37 -1 -39 2 -3 33 -5 68 -5 46 -1 73 5 98 19 41 24 96 103 127 182 87 224
330 887 327 892 -2 4 -23 6 -47 6 l-43 -2 -27 -74 c-14 -41 -66 -185 -114
-320 -47 -135 -90 -251 -94 -259 -5 -10 -10 -4 -15 20 -7 30 -52 159 -75 214
-5 11 -25 65 -45 120 -21 55 -53 139 -71 187 -19 49 -34 92 -34 98 0 11 1 11
-57 15 -24 1 -43 0 -43 -4z"/>
</g>
</svg>
